<svg xmlns="http://www.w3.org/2000/svg" width="256" height="256" viewBox="0 0 256 256"><path d="M57.7 166a31.9 31.9 0 0 0-7.7.9c0 .3.3.6.8 1a12.3 12.3 0 0 0 2 1l2.6 1 2.8.8 2.3.6 1.5.2h2.1a10.1 10.1 0 0 0 2.5-.4l2.4-.8a5 5 0 0 0 1.7-1.5 30.3 30.3 0 0 0-6.4-2.2 37 37 0 0 0-6.6-.6z"/><path d="M126 1.3a126 126 0 1 0 126 126 126 126 0 0 0-126-126zm82.2 69.6v.3a7.8 7.8 0 0 1-.1 1.3 15.2 15.2 0 0 0-.3 2.1 19.1 19.1 0 0 0-.4 2.1c-.1.6-.2 1.1-.2 1.3a7.6 7.6 0 0 0-.9 1.8 15.9 15.9 0 0 0-.7 2c-.2.7-.3 1.3-.5 2a15.4 15.4 0 0 1-.8 1.9 21.1 21.1 0 0 1-1.6 3 30.1 30.1 0 0 0-1.6 3.1l-19.8 27.4c-.1.3-.1.5-.2.6l-.3.3-.3.2-.4.5-1.6 2.3-2.1 2.8-2.1 3.2a29 29 0 0 0-2 3.3 25.3 25.3 0 0 0-1.4 2.9 8 8 0 0 0-.5 2.3c0 .3-.2.5-.2.7s.2.5.2.7c-.2.1-.3.2-.3.4s.1.4.3.4v10.1a2.2 2.2 0 0 1-.3 1l-.3 1.1a6.7 6.7 0 0 0-.6 1.2c-.1.5-.5.8-.5 1.2v1.6c0 .1.2.2 0 .4s-.2.5-.4.8l-.7.8a1.1 1.1 0 0 1-.5.4v.4c0 .1.7.2.8.4s.8.4.8.4v2.8a19.7 19.7 0 0 1-.6 3.5c-.2 1.2-.5 2.3-.7 3.5s-.5 2.3-.7 3.5a19.8 19.8 0 0 0-.3 3.5 42.9 42.9 0 0 0 .3 6.2 40.9 40.9 0 0 0 1 6.1 35.4 35.4 0 0 0 2.2 5.7 21.8 21.8 0 0 0 3.3 5.2 6.2 6.2 0 0 1-1.2.8l-1.7.7-1.7.4a3.4 3.4 0 0 1-1.4.1h-.5l-1-.2-1.2-.3-.9-.2h-.8l-.7-.3c-.3-.2-.5-.3-.6-.5a1.6 1.6 0 0 1-.4-.7 26.8 26.8 0 0 0 .2-4l-.3-4.3c-.2-1.4-.4-2.8-.5-4.2l-.6-4a2.5 2.5 0 0 0-.2-.7.8.8 0 0 0-.2-.6c.1-1.1.1-2.3.1-3.6s0-2.6-.1-4a26.3 26.3 0 0 0-.6-3.9 11.6 11.6 0 0 0-1.4-3.4 3.7 3.7 0 0 0-1.4 1.8 17.3 17.3 0 0 0-.8 2.7c-.2.9-.2 1.9-.4 2.8s-1 1.8-1 2.4v1.5a16.1 16.1 0 0 1 0 2.2v3.8c0 2.8-.2 5.5-.1 8.2a75.4 75.4 0 0 0 .6 8.1c0 .1.1.2.4.3l.8.6.8.7.3.6c0 .3-.2.5-.8.8l-1.8.9-2 .8-1.3.4h-.1l-4.8-2.5a.6.6 0 0 1-.2-.5v-.6a29.9 29.9 0 0 1 0-3 14.2 14.2 0 0 0 .2-3c0-1.2-.2-2.5-.3-3.7l-.6-3.7-.6-3.7a25.6 25.6 0 0 1-.3-3.9c0-1.2.1-2.3.1-3.3a27 27 0 0 1 .4-2.8c.2-.9.3-1.8.5-2.7s.4-2 .7-3.2a2 2 0 0 0-.1-.7 5.6 5.6 0 0 0-.1-.7 6.5 6.5 0 0 0-1.9.2l-1.8.5-1.9.6-1.9.5-1.3.2h-1.1c-.3.1-.7-.1-1-.1h-2.8a44.2 44.2 0 0 1-5.2-.1H119a4 4 0 0 0-2.3.8v5.2c0 1.7-.1 3.3-.1 5l-.3 5.1c-.1 1.7-.2 3.4-.2 5.1v2.5a8.5 8.5 0 0 1 0 1.6v1c0 .5.7 1.1 1.2 1.6l1.3 1.7a9.4 9.4 0 0 1 1.2 1.8 3 3 0 0 1 .6 1.8.3.3 0 0 0-.1.2 7.8 7.8 0 0 1-4 .4c.1.5 0 .7-.2.8h-2.7l-2.3-.2a4.4 4.4 0 0 1-1.8-.9 2.1 2.1 0 0 1-.7-1.8 6.2 6.2 0 0 1 .1-1.3l.3-1.3a5 5 0 0 0 .3-1.3 5.9 5.9 0 0 0 .2-1.3 22.5 22.5 0 0 0-.3-3.8c-.2-1.3-.4-2.4-.7-3.6s-.5-2.6-.8-3.8a30.8 30.8 0 0 1-.7-3.9h-.4c-.2 0-.4.7-.5.9l-.4.7-.3.5c-.5.7-1 1.5-1.6 2.2s-1 1.5-1.4 2.3a25.6 25.6 0 0 0-1.1 2.4 7.7 7.7 0 0 0-.4 2.7 4.5 4.5 0 0 0 .3 1.6l.7 1.5a10.5 10.5 0 0 0 .8 1.1 1.5 1.5 0 0 1 .3.6.8.8 0 0 1-.4.7l-1 .5-1.3.3h-2.6l-1.7-.2a1.8 1.8 0 0 1-1.1-.4 2.7 2.7 0 0 1-.7-.8 10.3 10.3 0 0 1-.5-1.6 14.2 14.2 0 0 1-.5-1.6 5.1 5.1 0 0 1-.3-1.7 3.4 3.4 0 0 1 .4-1.5l.9-1.5 1.1-1.6.8-1.4 2.4-5.9c.8-1.9 1.6-3.9 2.5-5.8l.4-.8.6-.7.4-.7a2.4 2.4 0 0 0 .2-.8.7.7 0 0 0-.4-.7H101l-8.9 2.5a3.2 3.2 0 0 1-1.3.5l-1.8.4a4.4 4.4 0 0 0-1.6.6 1 1 0 0 0-.6 1 2 2 0 0 0 .2.9c.2.2.4.5.7.6l.8.6.7.6-.4.4-1.2-.8-1.4-.8a4.7 4.7 0 0 0-1.5-.6 4 4 0 0 0-1.5-.3 17.3 17.3 0 0 0-3.8.5l-3.9 1.2-4.1 1.1a19.3 19.3 0 0 1-4.2.5 17.7 17.7 0 0 1-3.4-.4 32.6 32.6 0 0 1-4.8-1.1l-5.4-1.7a46.7 46.7 0 0 1-5-2.3 15.2 15.2 0 0 1-3.6-2.6 4.2 4.2 0 0 1-1.4-3 4 4 0 0 1 1.1-3.2 5.3 5.3 0 0 1 2.7-1.6c1.1-.4 2.2-.1 3.5-.2s2.3.3 3.3.3h3.9a3.1 3.1 0 0 1 1.3-.2h2.3l2.5.4 2 .2 1.9.5 1.8.9 1.8.7a4.5 4.5 0 0 0 2 .4 8.6 8.6 0 0 0 3.9-1.1 25 25 0 0 0 4.1-2.5 40.8 40.8 0 0 0 3.9-3.1l3.2-2.7a7.6 7.6 0 0 1 1.9-1.2l1.8-1.1a10.9 10.9 0 0 0 1.7-1.3 5 5 0 0 0 1.5-1.7 39.1 39.1 0 0 0 2.6-4.4 39.9 39.9 0 0 1 2.7-4.4 4 4 0 0 1 1.3-1.3l1.5-1 1.6-.9a8.3 8.3 0 0 0 1.6-.9l3.6-2.6c1.2-.9 2.3-1.9 3.4-2.9l3.3-3 3.5-2.8a17.2 17.2 0 0 1 3.7-2.2l3.9-1.8 2.5-1.3 2.4-1.3 2.6-1.1a11.2 11.2 0 0 1 2.6-.8l22.2-3.2a11.8 11.8 0 0 0 3.5-1.1 21 21 0 0 0 3.3-2.2 28 28 0 0 0 3.2-2.9c1-1 1.9-2.1 2.9-3.2s1.8-2.1 2.6-3.2l2.3-2.7 7.6-8.9.4-.3.5-.6a1.2 1.2 0 0 0 .5-.5l.3-.2 2-3.3h.3l.3-.3.4-.2.2-.2.4-.4.4-.4A12.5 12.5 0 0 0 193 84l1.4-1.9 1.3-2 1-1.7a11.9 11.9 0 0 0 .8-2c.2-.7.5-1.4.7-2.1s.5-1.4.8-2.2 1-1.4 1-2.2v-6a5.3 5.3 0 0 0-1.1-3.1 16 16 0 0 0-2.6-2.6 15.4 15.4 0 0 0-3.4-1.7 8 8 0 0 0-3.1-.7 21.5 21.5 0 0 0-5.8.7 12.4 12.4 0 0 0-5.1 2.6 9.2 9.2 0 0 0-1.4 1.4l-1.6 1.8-1.8 2-1.8 1.9-1.8 1.2a3.2 3.2 0 0 1-1.8.6 1.7 1.7 0 0 1-1.6-1.6v-.5a1 1 0 0 0 .1-.4 2.4 2.4 0 0 1 .2-.8c0-.3.1-.5.1-.8s.1-.3.1-.4a4.3 4.3 0 0 0-.3-1.7 5.2 5.2 0 0 0-.6-1.3l-.6-1.2a5.1 5.1 0 0 1-.2-1.3c.4 0 .7 0 .8-.2l.5-.6c.1-.3.3-.5.4-.8l.8-.6h2.8c.5 0 .8-.1.9-.4l.8-.7h.3c.1 0 .2.2.3.4a.5.5 0 0 0 .2.4c0-.2.1-.3.4-.4l.6-.4 1.1-.6 1.3-.8 1.4-.8 1-.6.6-.4a13.5 13.5 0 0 1 2.1-1.3l1.7-.6 2-.2h6.3a9.4 9.4 0 0 0 1.5.6l1.5.3 1.6.3 1.5.5a13.7 13.7 0 0 1 4.5 3 18.1 18.1 0 0 1 3.2 4.1 22.7 22.7 0 0 1 1.7 5 24.7 24.7 0 0 1 .5 5.4V71z"/></svg>