<svg xmlns="http://www.w3.org/2000/svg" width="256" height="256" viewBox="0 0 256 256"><path d="M133.8 151.3c-.2 0-.4.2-.4.6h-.1c-.3 0-.4.1-.4.4s.1.6.4.6.4-.2.4-.6h.1c.4 0 .5-.1.5-.4s-.1-.6-.5-.6zm1.5-.8a2.4 2.4 0 0 0-.9.8h.3a1.5 1.5 0 0 0 1.1-.4 2.2 2.2 0 0 0 .9-.7h-.3a2 2 0 0 0-1.1.3zm3-2.6c-.3 0-.4.2-.4.6h-.1a.5.5 0 0 0-.5.5h-.1c-.3 0-.5.2-.5.6s.2.6.5.6.5-.2.5-.6h.1c.3 0 .4-.2.4-.6h.1a.5.5 0 0 0 .5-.5c0-.4-.2-.6-.5-.6zm23-5.8a17.4 17.4 0 0 1-1.2 1.4 1.7 1.7 0 0 0 .8 1l1.1.2a2.4 2.4 0 0 0 1.4-.5 4 4 0 0 0 1-1.2 10 10 0 0 0 .8-1.4c.2-.6.4-1.2.5-1.2h-3.4c-.2 0-.5 1.1-1 1.7z"/><path d="M129.3 2.3a126 126 0 1 0 126 126 126 126 0 0 0-126-126zm94.5 74.8l-1.5.4h-3.7a43.7 43.7 0 0 0-5.2 1.3 15 15 0 0 0-3.6 1.5 7.3 7.3 0 0 0-2.4 2.2 11.9 11.9 0 0 0-1.8 2.9 40.4 40.4 0 0 0-1.5 3.9c-.4 1.4-1 3.1-1.6 5l-1.2 3.4-1.2 3.1a29.6 29.6 0 0 1-1.5 3.1c-.5 1.1-1.1 2.1-1.7 3.2a29 29 0 0 1-2.7 4.1l-2.9 3.6c-1 1.2-2 2.4-3.1 3.5l-3 3.8a8.7 8.7 0 0 0-1.4 2.7 18.6 18.6 0 0 1-1 2.5 7.1 7.1 0 0 1-1.3 2.2 5.2 5.2 0 0 1-2.5 1.6l-1.3.5-2 .7-2 .6-1.4.4c.3 1 .4 1.6.2 2a2 2 0 0 1-.9.9 2.3 2.3 0 0 1-1.2.6 1.4 1.4 0 0 0-.8 1l-2.3 6.7a2.5 2.5 0 0 1-1 1.5 7.5 7.5 0 0 1-1.8.8 12.3 12.3 0 0 1-2 .2 10.3 10.3 0 0 1-1.8-.1h-2a.8.8 0 0 1-.4-.8c0-.2.1-.3.1-.4l.3-.3.2-.3c.1-.1.1-.2.1-.4a15 15 0 0 0-3.4 1.6l-3.4 2-3.3 2.2a27.9 27.9 0 0 1-3.3 1.9l-.9.5-1.1.6-1 .7a1.5 1.5 0 0 0-.4 1.1v.5l1.8 1.6 1.9 1.8 2 1.5a12 12 0 0 0 2.1 1.3l1.8.7 1.9.5 1.9.6 1.7.9 1.3 1.4 1.1 1.5 1.1 1.5a6.1 6.1 0 0 0 1.5 1.2 3.4 3.4 0 0 0 1.7.6l2 .7a5.2 5.2 0 0 1 1.8 1 2.1 2.1 0 0 1 .7 1.7v.5l-5.5 1.1-1.1.4-1.2.2h-.5l-1.2-.6-1.7-1-1.7-1-1-.8-.2-.2-.3-.5-.3-.5-.3-.5-2.2-4.4-1.2-.5-1.8-.7-2.1-.9-2.1-1-1.8-.8-1.1-.6a12.8 12.8 0 0 1-2.7-1.6 13.3 13.3 0 0 1-2.6-2.1 10.5 10.5 0 0 1-2-2.7 8.2 8.2 0 0 1-1.1-3.1l-.5.3-.6.3-.9.6a8.3 8.3 0 0 1-1.7 1.2 19.1 19.1 0 0 1-2.1 1.4l-2.1 1.4-1.7 1-.9.5-6 3.5a33.1 33.1 0 0 0-4.5 3.4 19.2 19.2 0 0 0-3.6 4.4c-.8 1.7-.7 3.9-2.3 6.6v1.6a10.5 10.5 0 0 0 1.1 4.4 8.7 8.7 0 0 0 2 2.4 9.4 9.4 0 0 0 2.6 1.4l2.6 1a5.6 5.6 0 0 1 1.9.9 6 6 0 0 1 .8 2h-13.2l-.2-.4-.3-.2h-.5l-.6-.3a3.4 3.4 0 0 1-1.3-1.6 6.5 6.5 0 0 1-.4-2.1 9 9 0 0 1 .2-2.3c0-.8.2-1.4.2-2v-1.5a8.6 8.6 0 0 1 .3-1.7c.2-.8.3-1.7.6-2.7s.5-2 .7-3.1.6-2.2.8-3.2.5-1.8.7-2.6.3-1.4.4-1.7a7.7 7.7 0 0 1 .7-2 7 7 0 0 1 1-1.9 13.5 13.5 0 0 0 4.4-2.6 24.2 24.2 0 0 0 3.2-3.2l2.9-3.4a16.7 16.7 0 0 1 3.4-3.1l1.5-.7 2-.8 2.3-.9 2.1-1.1a7.6 7.6 0 0 0 1.6-1.4 2 2 0 0 0 .6-1.5V142a1.7 1.7 0 0 0-.6-1.2l-.8-.3-1.2-.5-1.1-.6-.8-.3a9.4 9.4 0 0 1-2-1.2l-2.7-1.9-2.5-1.5a3.1 3.1 0 0 0-1.7-.6h-7.8c-6 0-11.8-.1-17.5.1s-11.6.2-17.6.2c-4.3 0-8.6-.1-12.7-.4a98.5 98.5 0 0 1-12.3-1.3 98.3 98.3 0 0 1-11.9-2.9 73.5 73.5 0 0 1-11.7-5l-1.4-.7-1.6-1a8 8 0 0 1-1.3-1.3 3 3 0 0 1-.5-1.6 9.5 9.5 0 0 1 2.1.4l2.4.9 2.2 1 1.4.6c1.5.6 3 1.2 4.7 1.7l5 1.4 5.1 1 4.8.3h26.3l2.5-.3 3.4-.5 3.6-.6 3.4-.7 2.6-.5 6.8-1.4c2.5-.4 4.9-.9 7.3-1.5s4.9-1.3 7.2-2.1a50.4 50.4 0 0 0 6.6-2.8l3.8-1.8 3.8-1.6 3.9-1.3a27.1 27.1 0 0 1 4.1-.9h2.8l1.8-.2h1l1.9-.4 3.3-.7 4-.9 4-.9c1.3-.3 2.4-.9 3.3-1.1s1.6-.7 1.9-.7h6.5a64.6 64.6 0 0 1 7.8.7c2.6.2 5.2.5 7.8.5a9.8 9.8 0 0 0 5-1.3 17.8 17.8 0 0 0 4.5-3.4 30.5 30.5 0 0 0 3.8-4.9q1.8-2.9 3.3-5.7c.9-1.8 1.8-3.7 2.5-5.5l1.8-4.8c.4-1.1.7-2.3 1.1-3.4a28.1 28.1 0 0 1 1-3.1 12.3 12.3 0 0 1 1.2-2.6 6.5 6.5 0 0 1 1.7-2 7.4 7.4 0 0 1 2.6-1.5 10.2 10.2 0 0 1 3.8-.8h3c.8 1.6 1.8.9 3 1.3a36.8 36.8 0 0 1 3.5 1.5 14.9 14.9 0 0 1 3 1.8 2.8 2.8 0 0 1 1.2 2.2 2.4 2.4 0 0 1-.5 1.4 2.4 2.4 0 0 1-1.1.3z"/></svg>