<svg xmlns="http://www.w3.org/2000/svg" width="256" height="256" viewBox="0 0 256 256"><path d="M127.7 2.3a126 126 0 1 0 126 126 126 126 0 0 0-126-126zm108.9 115a28.1 28.1 0 0 1-4.1 0h-3.2c-3 0-6-.2-9-.5l-9.1-.9-9-1a91 91 0 0 0-9.1-.4 146.1 146.1 0 0 0-16.1.9 76.3 76.3 0 0 0-15.7 3.7L131.1 130a2.4 2.4 0 0 0-1.2 1.6 10.7 10.7 0 0 0-.8 2.7c-.3 1-.5 1.9-.7 2.8a9.8 9.8 0 0 1-.6 2 3.6 3.6 0 0 0 1.4 1.3l2.4 1.1 2.9 1.2 2.7 1.4a12.9 12.9 0 0 1 2.1 1.9 4.1 4.1 0 0 1 .8 2.4 1.7 1.7 0 0 1-.5 1.2l-1.2.9-1.6.7-1.6.8a4 4 0 0 0-1.2 1 2.5 2.5 0 0 0-.5 1.5 3.7 3.7 0 0 0 .8 2.5 7.4 7.4 0 0 0 1.9 1.6l2.4 1.3a8.7 8.7 0 0 1 2.1 1.7 20.1 20.1 0 0 1 2 3.4 27.2 27.2 0 0 1 1.3 3.7 23.2 23.2 0 0 1 .7 3.8c.2 1.3.1 2.6.3 3.9l1.3 1.3v7.1h.8l1.1.2.9.2.6.2a5.5 5.5 0 0 0 .1.9c0 .2-.1.5-.1.9a9.3 9.3 0 0 1-.4 1.3l-.6.9a1 1 0 0 1-.9.3h-5.1c-.2 0-.5-.5-1-.8l-1.5-.9-1.5-.7c-.6-.4-.9-.9-1.2-.9h-6.1a4.8 4.8 0 0 1 .6-2.9 5.2 5.2 0 0 1 1.7-1.6 6.5 6.5 0 0 1 2.1-.6l2.1-.4a3.8 3.8 0 0 0 1.6-.6 1.4 1.4 0 0 0 .6-1.3v-.6l-.9-1.8a17.9 17.9 0 0 0-1.2-2.4l-1.5-2.4a10 10 0 0 0-1.6-1.8l-1.3-.8-1.8-1a9.5 9.5 0 0 1-1.7-1c-.6-.4-.9-.7-1-1.1s-.6-1.8-.9-2.9a30.1 30.1 0 0 0-1.1-3.2 9 9 0 0 0-1.7-2.6 4.4 4.4 0 0 0-2.9-1 23.3 23.3 0 0 0-5.9.8 25.3 25.3 0 0 0-10.7 5.7 18.2 18.2 0 0 0-3.8 4.5l-.4.2h-.3l-.2-.3c0-.2-.1-.4-.1-.7a1.4 1.4 0 0 1-.2-.6.4.4 0 0 0-.1-.3h-.3a1.6 1.6 0 0 0-1.1.5 3.6 3.6 0 0 0-.8 1.2l-.9 1.3a3.9 3.9 0 0 1-.8 1 5.6 5.6 0 0 1-.7-1.7v-1.6a9.2 9.2 0 0 1 .4-2.9 27.6 27.6 0 0 1 .8-2.7 27.7 27.7 0 0 0 1-2.6 23.2 23.2 0 0 0 .3-2.7h-4.8c0-1.7.2-1.8.7-2.4a4.6 4.6 0 0 1 1.6-1.5 5 5 0 0 1 2.1-.9 7.6 7.6 0 0 1 2.1-.3 15.1 15.1 0 0 1 3 .2l2.9.4 2.8.5 2.9.2h2.3a2.3 2.3 0 0 0-1.7-1.3l-2.5-.5-2.6-.2c-.9 0-1.6.2-2.2-.2l-3.9-2.1h-.3a16.1 16.1 0 0 0-3.1-.1 10.6 10.6 0 0 1-3.1.2 7.3 7.3 0 0 1-3-.7l-2.6-1.8-2.6-1.3a5 5 0 0 0-2.9-.6v6l1.6-.2 1-.3.9-.5a3.5 3.5 0 0 1 .9-.6l.6-.2v2.7l2-.6c0 .1.2.2.2.5s.1.3.1.5a5.5 5.5 0 0 1-1.3 3.8 22.6 22.6 0 0 1-3.2 2.9 29.2 29.2 0 0 0-4.6-1.3l-4.7-.6v-7.7a10.4 10.4 0 0 0-1.8.5l-2 1a11.8 11.8 0 0 0-1.9 1.1c-.4.5-.9.9-.9 1.2v6.9a9.3 9.3 0 0 0 2.9-.3l1.9-.6 1.2-.6a2.1 2.1 0 0 1 1.2-.3h.3a1.5 1.5 0 0 1 .3.7l.5 1.2c.1.5.3.9.4 1.3a4.1 4.1 0 0 1 .1 1 4.6 4.6 0 0 1-.4 1.9 5.9 5.9 0 0 1-1 1.7 7 7 0 0 1-1.6 1.4 3.7 3.7 0 0 1-1.8.5h-1l-3-.5a22.9 22.9 0 0 1-3.6-.7 13.3 13.3 0 0 1-3.2-1.2 2.6 2.6 0 0 1-1.4-2.1V150l.9-.8 1.8-1.6 2.4-2.1a28.5 28.5 0 0 0 2.3-2.6 15.1 15.1 0 0 0 1.8-2.6 5.2 5.2 0 0 0 .8-2.5 3.8 3.8 0 0 0-1.2-2.8 11.8 11.8 0 0 0-2.8-2 18.3 18.3 0 0 0-3.2-1.4l-2.5-.9-1.3-9q-.3-1.2-.6-2.7a10.9 10.9 0 0 0-1.1-2.7 6.3 6.3 0 0 0-1.8-2.1 3.9 3.9 0 0 0-2.6-.9 9.8 9.8 0 0 0-3.6.5 17.3 17.3 0 0 0-3.2 1.4l-1.6 1.1-2.5 1.4-3 1.8-2.9 1.7c-1 .5-1.8 1.2-2.5 1.6s-1.3 1.2-1.7 1.2h-1l-1.7-.3a12 12 0 0 1-2-.3 4.7 4.7 0 0 1-1.4-.8c-.5-.3-.3-.8-.3-1.4v-1.8c0-.6-.3-.9 0-.9h1.6s-.1-.1 0-.4a2.5 2.5 0 0 1 .1-.8c.1-.3.1-.6.2-.8a.7.7 0 0 0 0-.5 2.4 2.4 0 0 0-.8-.9l-.9-.5a1.2 1.2 0 0 1-.6-.6 2.1 2.1 0 0 1-.3-1.2 5 5 0 0 1 .2-1.2 7.5 7.5 0 0 1 .7-1.2c.3-.3.2-.6.6-.8l.8-.4v.8a4.7 4.7 0 0 0 .6 1.5c.1.5.6.7 1.2.7a1.2 1.2 0 0 0 1-.5 5.2 5.2 0 0 0 1-1.1 10.4 10.4 0 0 0 .6-1.6c.2-.5.3.3.3-1.4H22.2c-.3 0-.5-.2-.9-.5a3.3 3.3 0 0 1-1-.6 3.6 3.6 0 0 1-.9-.8 1.3 1.3 0 0 1-.4-1 4.6 4.6 0 0 1 1-3.2 10 10 0 0 1 2.6-1.8l3.2-1a15.8 15.8 0 0 0 2.8-.8l2.2-.9 3.3-1.5 3.3-1.6a14.1 14.1 0 0 1 2.2-1.1h13.5a7 7 0 0 1 3.8 1 12.6 12.6 0 0 1 3.1 2.4 20.4 20.4 0 0 1 2.5 3.3l2.3 3.3a18.6 18.6 0 0 0 2.2 2.5 4.2 4.2 0 0 0 2.5 1 .8.8 0 0 0 .8-.4c.1-.3.4-.4.8-.4a4 4 0 0 1 1.5.3l1.5.7 1.5.7a4.5 4.5 0 0 0 1.6.3l4.1-.2 4-.4 4.1-.5a27.5 27.5 0 0 1 4.1-.2 55.8 55.8 0 0 1 7.2.4 40.2 40.2 0 0 1 7.2 1.5c1.6.6 3.3 1.2 5 2s3.3 1.5 5 2.1a53.4 53.4 0 0 0 5.2 1.8 20 20 0 0 0 5.4.7h2.6c4.2-1 8.5-1.9 12.7-2.7s8.5-1.6 12.7-2.3 8.5-1.1 12.8-1.5 8.6-.6 13-.6h8.8a34 34 0 0 1 5 1l36.1 7.1h11.6c-.8 0-1.9 1-3.1 1.4a27.5 27.5 0 0 1-4.1.2z"/></svg>